<?xml version="1.0" encoding="iso-8859-1"?>
<!-- Uploaded to: SVG Repo, www.svgrepo.com, Generator: SVG Repo Mixer Tools -->
<svg version="1.1" id="Layer_1" xmlns="http://www.w3.org/2000/svg" xmlns:xlink="http://www.w3.org/1999/xlink" 
	 viewBox="0 0 512 512" xml:space="preserve">
<g>
	<path style="fill:#AA6EFF;" d="M256,0c-4.879,0-8.828,3.953-8.828,8.828v78.871h17.655V8.828C264.828,3.953,260.879,0,256,0z"/>
	<rect x="247.172" y="334.345" style="fill:#AA6EFF;" width="17.655" height="100.138"/>
	<rect x="317.793" y="313.754" style="fill:#AA6EFF;" width="17.655" height="116.59"/>
	<rect x="176.552" y="313.754" style="fill:#AA6EFF;" width="17.655" height="116.59"/>
</g>
<path style="fill:#FFDC64;" d="M349.547,131.334c-4.013-4.655-8.361-9.004-13.016-13.017c-10.001,6.1-33.635,20.585-56.257,34.943
	c-5.847-26.168-12.322-53.144-15.078-64.516c-3.048-0.227-6.092-0.467-9.196-0.467s-6.148,0.239-9.196,0.466
	c-2.755,11.372-9.229,38.348-15.078,64.516c-22.621-14.358-46.257-28.842-56.257-34.943c-4.655,4.013-9.003,8.362-13.016,13.017
	c6.106,10.006,20.59,33.638,34.946,56.255c-26.168,5.847-53.145,12.322-64.52,15.078c-0.226,3.049-0.466,6.093-0.466,9.197
	c0,3.104,0.239,6.148,0.466,9.196c11.374,2.755,38.35,9.229,64.518,15.078c-14.357,22.621-28.842,46.254-34.946,56.255
	c4.014,4.658,8.363,9.006,13.021,13.021c10.002-6.105,33.634-20.59,56.255-34.947c5.848,26.168,12.322,53.145,15.078,64.52
	c3.048,0.226,6.092,0.466,9.196,0.466s6.148-0.239,9.196-0.466c2.755-11.374,9.229-38.351,15.078-64.52
	c22.621,14.357,46.253,28.842,56.255,34.947c4.658-4.014,9.006-8.363,13.021-13.021c-6.104-10.001-20.589-33.635-34.946-56.255
	c26.167-5.847,53.144-12.322,64.518-15.078c0.226-3.048,0.466-6.092,0.466-9.196s-0.239-6.148-0.466-9.196
	c-11.374-2.755-38.351-9.23-64.52-15.078C328.957,164.971,343.441,141.34,349.547,131.334z M170.552,211.862
	c12.445-2.902,25.209-5.815,37.01-8.423c1.895,2.921,3.73,5.724,5.513,8.42c-1.783,2.699-3.619,5.502-5.515,8.424
	C195.759,217.677,182.996,214.763,170.552,211.862z M195.577,272.285c6.748-10.851,13.713-21.937,20.213-32.126
	c3.405,0.725,6.687,1.409,9.856,2.057c0.647,3.169,1.332,6.45,2.057,9.856C217.515,258.572,206.429,265.537,195.577,272.285z
	 M225.646,181.508c-3.169,0.648-6.45,1.332-9.856,2.057c-6.5-10.187-13.465-21.272-20.213-32.121
	c10.851,6.746,21.938,13.71,32.126,20.21C226.977,175.06,226.293,178.34,225.646,181.508z M256,126.418
	c2.901,12.442,5.814,25.204,8.422,37.002c-2.921,1.895-5.724,3.732-8.422,5.515c-2.698-1.783-5.501-3.619-8.422-5.515
	C250.186,151.622,253.099,138.86,256,126.418z M256,297.311c-2.901-12.445-5.815-25.208-8.423-37.009
	c2.921-1.896,5.725-3.731,8.423-5.515c2.698,1.783,5.501,3.619,8.423,5.515C261.815,272.102,258.901,284.865,256,297.311z
	 M316.423,151.444c-6.748,10.849-13.713,21.933-20.213,32.121c-3.406-0.725-6.687-1.409-9.856-2.057
	c-0.647-3.169-1.331-6.449-2.057-9.855C294.486,165.154,305.571,158.19,316.423,151.444z M316.423,272.285
	c-10.851-6.748-21.938-13.713-32.126-20.213c0.725-3.405,1.409-6.687,2.057-9.856c3.169-0.647,6.45-1.332,9.856-2.057
	C302.71,250.347,309.675,261.433,316.423,272.285z M341.449,211.862c-12.445,2.901-25.207,5.815-37.007,8.422
	c-1.896-2.922-3.732-5.725-5.515-8.424c1.783-2.698,3.618-5.5,5.513-8.42C316.239,206.047,329.003,208.96,341.449,211.862z"/>
<path style="fill:#733CB9;" d="M256,344.276c-73.017,0-132.414-59.396-132.414-132.414c0-73.013,59.396-132.414,132.414-132.414
	s132.414,59.401,132.414,132.414C388.414,284.879,329.017,344.276,256,344.276z M256,97.103
	c-63.276,0-114.759,51.478-114.759,114.759c0,63.276,51.482,114.759,114.759,114.759s114.759-51.482,114.759-114.759
	C370.759,148.582,319.276,97.103,256,97.103z"/>
<circle style="fill:#FFC850;" cx="256" cy="44.138" r="17.655"/>
<path style="fill:#FF507D;" d="M273.655,441.379C273.655,485.517,256,512,256,512s-17.655-26.483-17.655-70.621
	c0-9.751,7.904-17.655,17.655-17.655C265.751,423.724,273.655,431.628,273.655,441.379z"/>
<path style="fill:#FFC850;" d="M256,247.172c-19.466,0-35.31-15.844-35.31-35.31s15.844-35.31,35.31-35.31s35.31,15.844,35.31,35.31
	S275.466,247.172,256,247.172z"/>
<path style="fill:#7DF5A5;" d="M256,229.517c-9.732,0-17.655-7.923-17.655-17.655c0-9.732,7.923-17.655,17.655-17.655
	s17.655,7.923,17.655,17.655C273.655,221.594,265.732,229.517,256,229.517z"/>
<g>
	<circle style="fill:#FFC850;" cx="256" cy="379.586" r="17.655"/>
	<circle style="fill:#FFC850;" cx="326.621" cy="370.759" r="17.655"/>
	<circle style="fill:#FFC850;" cx="185.379" cy="370.759" r="17.655"/>
</g>
<path style="fill:#D23C69;" d="M238.345,441.379C238.345,485.517,256,512,256,512v-88.276
	C246.25,423.724,238.345,431.628,238.345,441.379z"/>
<path style="fill:#FF507D;" d="M344.276,432.552c0,44.138-17.655,61.793-17.655,61.793s-17.655-17.655-17.655-61.793
	c0-9.751,7.904-17.655,17.655-17.655C336.372,414.897,344.276,422.801,344.276,432.552z"/>
<path style="fill:#D23C69;" d="M308.966,432.552c0,44.138,17.655,61.793,17.655,61.793v-79.448
	C316.871,414.897,308.966,422.801,308.966,432.552z"/>
<path style="fill:#FF507D;" d="M203.034,432.552c0,44.138-17.655,61.793-17.655,61.793s-17.655-17.655-17.655-61.793
	c0-9.751,7.904-17.655,17.655-17.655C195.13,414.897,203.034,422.801,203.034,432.552z"/>
<path style="fill:#D23C69;" d="M167.724,432.552c0,44.138,17.655,61.793,17.655,61.793v-79.448
	C175.629,414.897,167.724,422.801,167.724,432.552z"/>
</svg>