<?xml version="1.0" encoding="iso-8859-1"?>
<!-- Uploaded to: SVG Repo, www.svgrepo.com, Generator: SVG Repo Mixer Tools -->
<svg version="1.1" id="Layer_1" xmlns="http://www.w3.org/2000/svg" xmlns:xlink="http://www.w3.org/1999/xlink" 
	 viewBox="0 0 512 512" xml:space="preserve">
<path style="fill:#D9D8DB;" d="M372.481,101.234l4.715-10.016c-0.85-0.401-21.108-9.854-46.275-12.951
	c-11.059-1.362-21.375-1.294-30.858,0.167c-1.54-9.469-4.664-19.301-9.375-29.399C279.964,26.056,264.713,9.711,264.07,9.027
	l-8.07,7.59l-8.07-7.59c-0.643,0.685-15.894,17.03-26.617,40.007c-4.713,10.099-7.836,19.931-9.376,29.401
	c-9.483-1.461-19.799-1.53-30.858-0.169c-25.167,3.098-45.424,12.551-46.275,12.951l4.725,10.02l-9.712,5.328
	c0.452,0.825,11.285,20.38,29.825,37.678c8.149,7.604,16.538,13.6,25.068,17.992c-4.322,8.569-7.577,18.362-9.7,29.305
	c-4.832,24.892-2.1,47.08-1.982,48.012l10.981-1.397l2.074,10.882c0.924-0.175,22.869-4.434,45.05-16.721
	c9.748-5.399,18.054-11.519,24.865-18.274c6.813,6.755,15.118,12.875,24.865,18.274c22.181,12.287,44.127,16.545,45.05,16.721
	l2.072-10.874l10.982,1.389c0.119-0.933,2.849-23.12-1.982-48.012c-2.124-10.943-5.379-20.737-9.701-29.305
	c8.531-4.392,16.92-10.389,25.069-17.992c18.54-17.298,29.372-36.853,29.825-37.678L372.481,101.234z M282.333,130.523
	l-4.895,14.979c2.335,0.764,4.535,1.667,6.611,2.69c-2.282-0.393-4.591-0.954-6.929-1.71l-4.845,14.996l-15.758-0.027
	c-0.004,2.455-0.184,4.826-0.515,7.116c-0.331-2.291-0.511-4.66-0.515-7.116l-15.758,0.027l-4.845-14.996
	c-2.342,0.757-4.657,1.319-6.942,1.712c2.08-1.023,4.284-1.927,6.624-2.691l-4.895-14.979l12.765-9.242
	c-1.444-1.993-2.692-4.021-3.773-6.073c1.615,1.662,3.155,3.478,4.606,5.467l12.733-9.285l12.733,9.285
	c1.45-1.989,2.992-3.803,4.609-5.464c-1.082,2.05-2.333,4.076-3.777,6.069L282.333,130.523z M256.021,34.162
	c8.252,11.138,20.168,30.298,22.54,50.627c-8.592,3.962-16.152,9.472-22.559,16.501c-6.392-7.011-13.932-12.511-22.499-16.47
	C235.895,64.503,247.79,45.316,256.021,34.162z M156.225,106.64c13.143-4.407,35.046-9.818,55.112-5.792
	c1.113,9.396,4.017,18.288,8.722,26.555c-8.644,3.912-16.204,9.383-22.617,16.306C178.862,135.154,164.291,117.914,156.225,106.64z
	 M194.316,223.949c-0.129-13.865,1.494-36.379,11.531-54.221c4.565,0.907,9.147,1.388,13.735,1.388
	c4.735,0,9.475-0.492,14.206-1.467c1.05,9.432,3.917,18.314,8.521,26.555C228.43,211.231,207.531,219.762,194.316,223.949z
	 M317.654,223.939c-13.216-4.191-34.095-12.719-47.961-27.735c4.604-8.24,7.472-17.123,8.521-26.555
	c4.729,0.975,9.47,1.467,14.206,1.467c4.566,0,9.126-0.477,13.669-1.376C316.093,187.57,317.753,210.07,317.654,223.939z
	 M314.561,143.709c-6.413-6.924-13.974-12.395-22.618-16.307c4.694-8.247,7.594-17.116,8.713-26.488
	c20.044-3.997,41.947,1.375,55.102,5.753C347.689,117.943,333.126,135.162,314.561,143.709z"/>
<rect x="137.361" y="197.677" style="fill:#7F7F80;" width="22.155" height="230.255"/>
<circle style="fill:#CA3486;" cx="148.436" cy="312.888" r="22.244"/>
<circle style="fill:#A4D95E;" cx="148.436" cy="426.485" r="22.244"/>
<rect x="352.479" y="197.677" style="fill:#7F7F80;" width="22.155" height="230.255"/>
<circle style="fill:#84BF7E;" cx="363.565" cy="312.888" r="22.244"/>
<circle style="fill:#952967;" cx="363.565" cy="426.485" r="22.244"/>
<path style="fill:#CA3486;" d="M298.453,344.297v125.251c0,23.408-19.044,42.453-42.453,42.453s-42.453-19.044-42.453-42.453
	V344.297l42.453-36.562L298.453,344.297z"/>
<path style="fill:#952967;" d="M298.453,344.297v125.251c0,23.408-19.044,42.453-42.453,42.453c0-14.045,0-204.266,0-204.266
	L298.453,344.297z"/>
<path style="fill:#A4D95E;" d="M298.069,475.175C295.307,495.931,277.5,512,256.001,512s-39.306-16.069-42.069-36.825
	c15.401-13.264,42.069-36.232,42.069-36.232L298.069,475.175z"/>
<g>
	<path style="fill:#84BF7E;" d="M298.069,475.175C295.307,495.931,277.5,512,256.001,512c0-15.228,0-73.057,0-73.057
		L298.069,475.175z"/>
	<path style="fill:#84BF7E;" d="M256.001,359.623v-51.889l42.453,36.562v51.889C282.648,382.573,256.001,359.623,256.001,359.623z"
		/>
</g>
<path style="fill:#A4D95E;" d="M256.001,391.366c0,0-28.102,24.203-42.453,36.562v-31.743l42.453-36.562V391.366z"/>
<rect x="244.926" y="261.543" style="fill:#7F7F80;" width="22.155" height="159.811"/>
<path style="fill:#5B5B5F;" d="M256.001,278.16c-76.689,0-139.08-62.391-139.08-139.08S179.312,0,256.001,0
	S395.08,62.391,395.08,139.08S332.689,278.16,256.001,278.16z M256.001,33.232c-58.365,0-105.847,47.482-105.847,105.847
	s47.482,105.847,105.847,105.847s105.847-47.482,105.847-105.847S314.365,33.232,256.001,33.232z"/>
<path style="fill:#E8BA44;" d="M256.001,175.372c-20.011,0-36.293-16.28-36.293-36.293s16.28-36.294,36.293-36.294
	s36.293,16.28,36.293,36.294C292.294,159.092,276.012,175.372,256.001,175.372z M256.001,124.941
	c-7.796,0-14.138,6.342-14.138,14.139c0,7.796,6.342,14.138,14.138,14.138c7.796,0,14.138-6.342,14.138-14.138
	C270.138,131.283,263.796,124.941,256.001,124.941z"/>
<path style="fill:#A6A5AB;" d="M372.481,101.234l4.715-10.016c-0.85-0.401-21.108-9.854-46.275-12.951
	c-11.059-1.362-21.375-1.294-30.858,0.167c-1.54-9.469-4.664-19.301-9.375-29.399C279.964,26.056,264.713,9.711,264.07,9.027
	l-8.07,7.59v17.572c0.007-0.009,0.013-0.018,0.02-0.027c8.252,11.138,20.168,30.298,22.54,50.627
	c-8.592,3.962-16.152,9.472-22.559,16.501v10.103l12.733,9.285c1.45-1.989,2.992-3.803,4.609-5.464
	c-1.082,2.05-2.333,4.076-3.777,6.069l12.765,9.242l-4.895,14.979c2.335,0.764,4.535,1.667,6.611,2.69
	c-2.282-0.393-4.591-0.954-6.929-1.71l-4.845,14.996l-15.758-0.027c-0.004,2.455-0.184,4.826-0.515,7.116v45.472
	c6.813,6.755,15.118,12.875,24.865,18.274c22.181,12.287,44.127,16.545,45.05,16.721l2.072-10.874l10.982,1.389
	c0.119-0.933,2.849-23.12-1.982-48.012c-2.124-10.943-5.379-20.737-9.701-29.305c8.531-4.392,16.92-10.389,25.069-17.992
	c18.54-17.298,29.372-36.853,29.825-37.678L372.481,101.234z M269.693,196.204c4.604-8.24,7.472-17.123,8.521-26.555
	c4.729,0.975,9.47,1.467,14.206,1.467c4.566,0,9.126-0.477,13.669-1.376c10.003,17.83,11.664,40.33,11.566,54.199
	C304.438,219.748,283.559,211.22,269.693,196.204z M314.561,143.709c-6.413-6.924-13.974-12.395-22.618-16.307
	c4.694-8.247,7.594-17.116,8.713-26.488c20.044-3.997,41.947,1.375,55.102,5.753C347.689,117.943,333.126,135.162,314.561,143.709z"
	/>
<path style="fill:#444242;" d="M256.001,0v33.232c58.365,0,105.847,47.482,105.847,105.847s-47.482,105.847-105.847,105.847v33.232
	c76.689,0,139.079-62.391,139.079-139.08S332.689,0,256.001,0z"/>
<path style="fill:#E49524;" d="M292.294,139.08c0-20.013-16.28-36.294-36.293-36.294v22.155c7.796,0,14.138,6.342,14.138,14.139
	c0,7.796-6.342,14.138-14.138,14.138v22.155C276.012,175.372,292.294,159.092,292.294,139.08z"/>
</svg>