<?xml version="1.0" encoding="iso-8859-1"?>
<!-- Uploaded to: SVG Repo, www.svgrepo.com, Generator: SVG Repo Mixer Tools -->
<svg version="1.1" id="Layer_1" xmlns="http://www.w3.org/2000/svg" xmlns:xlink="http://www.w3.org/1999/xlink" 
	 viewBox="0 0 512 512" xml:space="preserve">
<circle style="fill:#F60A53;" cx="256" cy="47.532" r="16.016"/>
<path style="fill:#91E713;" d="M396.423,355.558c-15.637-15.637-40.988-15.637-56.624,0c-15.636,15.636-15.636,40.988,0,56.624
	c15.637,15.637,40.988,15.637,56.624,0C412.06,396.545,412.06,371.194,396.423,355.558z M356.786,395.195
	c-6.255-6.255-6.255-16.396,0-22.65c6.255-6.255,16.395-6.255,22.649,0c6.255,6.255,6.255,16.395,0,22.65
	C373.181,401.449,363.04,401.449,356.786,395.195z"/>
<g>
	<path style="fill:#FE5D17;" d="M379.436,395.195c-6.255,6.255-16.396,6.255-22.649,0l-16.988,16.987
		c15.637,15.637,40.988,15.637,56.624,0L379.436,395.195z"/>
	<path style="fill:#FE5D17;" d="M396.423,358.874c-15.637-15.637-40.988-15.637-56.624,0l16.988,16.987
		c6.255-6.255,16.396-6.255,22.649,0L396.423,358.874z"/>
</g>
<path style="fill:#91E713;" d="M172.201,355.558c-15.637-15.637-40.988-15.637-56.624,0c-15.636,15.636-15.636,40.988,0,56.624
	c15.637,15.637,40.988,15.637,56.624,0C187.838,396.545,187.838,371.194,172.201,355.558z M132.564,395.195
	c-6.255-6.255-6.255-16.396,0-22.65c6.255-6.255,16.395-6.255,22.65,0c6.255,6.255,6.255,16.395,0,22.65
	C148.96,401.449,138.819,401.449,132.564,395.195z"/>
<g>
	<path style="fill:#FE5D17;" d="M155.214,395.195c-6.255,6.255-16.395,6.255-22.65,0l-16.987,16.987
		c15.637,15.637,40.988,15.637,56.624,0L155.214,395.195z"/>
	<path style="fill:#FE5D17;" d="M172.201,358.874c-15.637-15.637-40.988-15.637-56.624,0l16.987,16.987
		c6.255-6.255,16.395-6.255,22.65,0L172.201,358.874z"/>
	<path style="fill:#FE5D17;" d="M284.313,395.597c-15.636-15.637-40.988-15.637-56.624,0c-15.636,15.637-15.636,40.988,0,56.624
		c15.637,15.636,40.988,15.636,56.624,0C299.948,436.586,299.948,411.233,284.313,395.597z M244.675,435.234
		c-6.255-6.255-6.255-16.396,0-22.649c6.255-6.255,16.395-6.255,22.649,0c6.255,6.255,6.255,16.394,0,22.649
		C261.07,441.488,250.929,441.488,244.675,435.234z"/>
</g>
<g>
	<path style="fill:#91E713;" d="M267.325,435.234c-6.255,6.255-16.395,6.255-22.649,0l-16.987,16.987
		c15.637,15.636,40.988,15.636,56.624,0L267.325,435.234z"/>
	<path style="fill:#91E713;" d="M284.313,398.914c-15.636-15.636-40.988-15.636-56.624,0l16.987,16.987
		c6.255-6.255,16.395-6.255,22.649,0L284.313,398.914z"/>
</g>
<circle style="fill:#FE5D17;" cx="256" cy="223.713" r="40.04"/>
<path style="fill:#91E713;" d="M176.726,144.437c-43.782,43.782-43.782,114.766,0,158.549s114.766,43.782,158.549,0
	s43.782-114.766,0-158.549S220.508,100.655,176.726,144.437z M318.287,285.998c-34.4,34.4-90.174,34.4-124.574,0
	s-34.4-90.174,0-124.574s90.174-34.4,124.574,0S352.688,251.598,318.287,285.998z"/>
<path style="fill:#FE702D;" d="M176.726,302.986c43.782,43.782,114.766,43.782,158.549,0l-16.987-16.987
	c-34.4,34.4-90.174,34.4-124.574,0L176.726,302.986z"/>
<path style="fill:#FE5D17;" d="M193.713,161.424c34.4-34.4,90.599-33.975,124.574,0l16.987-16.987
	c-45.299-45.299-114.766-43.782-158.549,0L193.713,161.424z"/>
<path d="M256,175.664c-26.493,0-48.048,21.554-48.048,48.048s21.554,48.046,48.048,48.046s48.046-21.553,48.046-48.046
	S282.493,175.664,256,175.664z M288.031,223.712c0,1.94-0.183,3.837-0.515,5.683l-24.202-17.86v-19.003
	C277.462,195.851,288.031,208.567,288.031,223.712z M247.641,192.793v18.815l-23.178,17.672c-0.319-1.81-0.494-3.669-0.494-5.568
	C223.968,208.941,234.021,196.481,247.641,192.793z M231.364,244.158l16.276-12.409v22.881
	C241.182,252.882,235.526,249.164,231.364,244.158z M263.314,254.891V231.44l17.288,12.758
	C276.221,249.451,270.19,253.278,263.314,254.891z"/>
<path style="fill:#F60A53;" d="M256,295.782c-5.81,0-11.591-0.694-17.184-2.063l3.808-15.557c6.535,1.6,13.487,2.006,20.18,1.196
	l1.923,15.9C261.85,295.606,258.915,295.782,256,295.782z M273.286,293.694l-3.83-15.551c6.599-1.625,12.79-4.419,18.401-8.302
	l9.115,13.169C289.752,288.007,281.783,291.602,273.286,293.694z M230.495,291.137c-8.177-3.095-15.658-7.613-22.233-13.432
	l10.612-11.994c5.118,4.528,10.935,8.043,17.29,10.448L230.495,291.137z M303.809,277.643l-10.628-11.982
	c5.109-4.531,9.305-9.883,12.471-15.906l14.175,7.453C315.759,264.948,310.369,271.824,303.809,277.643z M202.107,271.565
	c-5.831-6.562-10.364-14.031-13.476-22.199l14.966-5.702c2.419,6.349,5.945,12.157,10.482,17.263L202.107,271.565z M323.42,249.268
	l-14.797-5.68c2.404-6.338,3.801-13.026,3.801-19.875v-0.104h15.673v0.044C328.098,232.51,326.516,241.108,323.42,249.268z
	 M186.032,241.056c-1.395-5.646-2.102-11.48-2.102-17.344c0-2.857,0.169-5.738,0.504-8.562l15.905,1.884
	c-0.26,2.202-0.393,4.448-0.393,6.678c0,4.569,0.551,9.112,1.635,13.501L186.032,241.056z M311.631,216.769
	c-0.834-6.76-2.872-13.238-6.057-19.252l14.153-7.496c4.102,7.745,6.726,16.084,7.799,24.787L311.631,216.769z M201.538,210.38
	l-15.561-3.795c2.074-8.503,5.651-16.481,10.631-23.712l13.19,9.084C205.927,197.578,203.148,203.776,201.538,210.38z
	 M302.053,191.743c-3.894-5.598-8.718-10.395-14.335-14.258l9.075-13.197c7.213,4.96,13.406,11.119,18.407,18.307L302.053,191.743z
	 M213.968,186.621l-12.004-10.602c5.803-6.571,12.666-11.976,20.396-16.062l7.485,14.159
	C223.83,177.296,218.488,181.504,213.968,186.621z M281.92,173.994c-6.032-3.152-12.521-5.154-19.289-5.951l1.872-15.906
	c8.711,1.025,17.067,3.604,24.835,7.662L281.92,173.994z M236.005,171.325l-5.715-14.961c8.15-3.114,16.742-4.703,25.537-4.724
	l0.039,16.015C249.018,167.672,242.336,168.907,236.005,171.325z"/>
<path d="M263.314,103.823v-7.693h-15.673v7.758c-62.315,4.305-111.704,56.343-111.758,119.719h-0.046v96.131h15.673v-36.836
	c19.376,34.069,54.925,57.792,96.131,60.639v15.903h15.673v-15.848c41.129-2.484,76.739-25.75,96.438-59.418l-0.307,35.492
	l15.672,0.136l0.766-88.693c0.149-2.449,0.235-4.915,0.235-7.401C376.118,159.935,326.154,107.616,263.314,103.823z M256,119.608
	c25.825,0,49.481,9.456,67.695,25.083l-5.679,5.68c-16.75-14.186-38.399-22.754-62.016-22.754s-45.266,8.569-62.016,22.754
	l-5.679-5.68C206.519,129.065,230.175,119.608,256,119.608z M336.079,223.712c0,44.155-35.924,80.079-80.079,80.079
	s-80.079-35.924-80.079-80.079c0-44.156,35.924-80.08,80.079-80.08S336.079,179.555,336.079,223.712z M176.981,291.406
	c-15.626-18.215-25.083-41.87-25.083-67.695c0-25.826,9.456-49.481,25.083-67.696l5.679,5.679
	c-14.186,16.75-22.754,38.399-22.754,62.017c0,23.617,8.569,45.266,22.754,62.016L176.981,291.406z M256,327.814
	c-25.825,0-49.48-9.455-67.695-25.083l5.679-5.679c16.75,14.186,38.399,22.754,62.016,22.754s45.266-8.569,62.016-22.754
	l5.679,5.679C305.48,318.357,281.825,327.814,256,327.814z M335.019,291.406l-5.679-5.679c14.186-16.75,22.754-38.399,22.754-62.016
	s-8.569-45.267-22.754-62.017l5.679-5.679c15.626,18.215,25.083,41.87,25.083,67.696
	C360.102,249.536,350.647,273.193,335.019,291.406z"/>
<path d="M278.706,39.706c-2.465-7.126-8.195-12.737-15.391-15.044V0h-15.673v25.035c-6.701,2.499-12.003,7.895-14.346,14.671h-9.686
	V55.38h9.689c2.347,6.774,7.639,12.182,14.343,14.679v17.713h15.673V70.419c7.195-2.305,12.921-7.917,15.388-15.039h8.644V39.706
	H278.706z M256,55.546c-4.416,0-8.008-3.592-8.008-8.008s3.592-8.008,8.008-8.008s8.008,3.592,8.008,8.008
	S260.416,55.546,256,55.546z"/>
<rect x="135.837" y="456.62" style="fill:#F60A53;" width="15.673" height="15.673"/>
<rect x="247.641" y="496.327" style="fill:#FE702D;" width="15.673" height="15.673"/>
<rect x="359.445" y="456.62" style="fill:#F60A53;" width="15.673" height="15.673"/>
<rect x="400.196" y="439.902" style="fill:#FE702D;" width="15.673" height="16.718"/>
<path d="M416.158,383.869c0-24.113-17.856-44.127-41.039-47.53v-8.241h-15.673v8.522c-22.369,4.094-39.382,23.715-39.382,47.249
	c0,1.614,0.721,47.761,0.721,47.761l15.673-0.176l-0.13-11.597c6.418,5.675,14.355,9.658,23.118,11.261v16.098h15.673v-15.816
	c9.558-1.403,18.208-5.629,25.078-11.803v11.945h15.673C415.869,431.543,416.158,385.633,416.158,383.869z M336.079,383.869
	c0-5.932,1.627-11.489,4.449-16.259l5.908,5.908c-1.504,3.137-2.348,6.647-2.348,10.351c0,3.704,0.844,7.215,2.348,10.351
	l-5.907,5.907C337.706,395.358,336.079,389.801,336.079,383.869z M360.102,383.869c0-4.416,3.592-8.008,8.008-8.008
	c4.416,0,8.008,3.592,8.008,8.008c0,4.416-3.592,8.009-8.008,8.009C363.694,391.879,360.102,388.285,360.102,383.869z
	 M378.462,362.194c-3.137-1.504-6.647-2.348-10.352-2.348c-3.704,0-7.215,0.844-10.352,2.348l-5.907-5.907
	c4.77-2.822,10.327-4.449,16.259-4.449s11.489,1.627,16.259,4.449L378.462,362.194z M357.759,405.546
	c3.137,1.504,6.648,2.348,10.352,2.348c3.704,0,7.215-0.844,10.352-2.348l5.907,5.907c-4.77,2.822-10.327,4.449-16.259,4.449
	s-11.489-1.627-16.259-4.449L357.759,405.546z M389.787,394.22c1.504-3.137,2.348-6.647,2.348-10.351
	c0-3.704-0.844-7.215-2.348-10.351l5.907-5.907c2.822,4.769,4.449,10.326,4.449,16.258c0,5.932-1.627,11.489-4.449,16.259
	L389.787,394.22z"/>
<g>
	<rect x="320.784" y="439.902" style="fill:#FE702D;" width="15.673" height="16.718"/>
	<rect x="175.543" y="439.902" style="fill:#FE702D;" width="15.673" height="16.718"/>
</g>
<path d="M191.936,383.869c0-23.9-17.543-43.773-40.426-47.436v-8.335h-15.673v8.412c-22.671,3.843-39.995,23.611-39.995,47.359
	c0,1.764,0.102,3.502,0.288,5.217v42.456h15.673v-11.946c6.617,5.949,14.89,10.082,24.033,11.632v15.988h15.673v-15.911
	c9.179-1.469,17.494-5.551,24.166-11.451l-0.134,11.598l15.672,0.181l0.498-43.192C191.857,386.936,191.936,385.412,191.936,383.869
	z M111.857,383.869c0-5.932,1.627-11.489,4.448-16.258l5.907,5.907c-1.504,3.137-2.348,6.647-2.348,10.351
	c0,3.704,0.844,7.215,2.348,10.351l-5.907,5.907C113.484,395.358,111.857,389.801,111.857,383.869z M135.881,383.869
	c0-4.416,3.592-8.008,8.008-8.008c4.416,0,8.008,3.592,8.008,8.008c0,4.416-3.592,8.009-8.008,8.009
	S135.881,388.285,135.881,383.869z M154.241,362.194c-3.137-1.504-6.647-2.348-10.352-2.348c-3.704,0-7.215,0.844-10.352,2.348
	l-5.907-5.907c4.77-2.822,10.327-4.449,16.259-4.449s11.489,1.627,16.259,4.449L154.241,362.194z M133.538,405.546
	c3.137,1.504,6.647,2.348,10.352,2.348c3.704,0,7.215-0.844,10.352-2.348l5.907,5.907c-4.77,2.822-10.327,4.449-16.259,4.449
	s-11.489-1.627-16.259-4.449L133.538,405.546z M165.565,394.22c1.504-3.137,2.348-6.647,2.348-10.351
	c0-3.704-0.844-7.215-2.348-10.351l5.908-5.908c2.822,4.77,4.449,10.327,4.449,16.259c0,5.932-1.627,11.489-4.449,16.259
	L165.565,394.22z"/>
<rect x="96.131" y="439.902" style="fill:#FE702D;" width="15.673" height="16.718"/>
<rect x="288.392" y="479.608" style="fill:#F60A53;" width="15.673" height="16.718"/>
<path d="M304.039,424.229c0.001-0.107,0.008-0.212,0.008-0.32c0-24.008-17.698-43.958-40.732-47.492v-8.613h-15.673v8.8
	c-22.521,3.97-39.688,23.664-39.688,47.305c0,0.108,0.007,0.212,0.008,0.32h-0.027v48.065h15.673v-12.932
	c6.593,6.029,14.871,10.239,24.033,11.854v16.751h15.673v-16.575c9.578-1.47,18.233-5.772,25.078-12.03v12.932h15.673v-48.065
	H304.039z M234.325,434.261l-5.907,5.907c-2.822-4.77-4.449-10.327-4.449-16.259s1.627-11.489,4.449-16.259l5.907,5.907
	c-1.504,3.137-2.348,6.647-2.348,10.351C231.977,427.614,232.82,431.124,234.325,434.261z M256,455.941
	c-5.932,0-11.489-1.627-16.259-4.449l5.907-5.907c3.137,1.504,6.647,2.348,10.352,2.348c3.704,0,7.215-0.844,10.351-2.348
	l5.907,5.907C267.489,454.314,261.932,455.941,256,455.941z M247.992,423.909c0-4.416,3.592-8.008,8.008-8.008
	s8.008,3.592,8.008,8.008s-3.592,8.008-8.008,8.008S247.992,428.325,247.992,423.909z M266.351,402.233
	c-3.137-1.504-6.647-2.348-10.351-2.348c-3.704,0-7.215,0.844-10.352,2.348l-5.907-5.908c4.77-2.822,10.327-4.449,16.259-4.449
	c5.932,0,11.489,1.627,16.259,4.449L266.351,402.233z M283.582,440.167l-5.907-5.907c1.504-3.137,2.348-6.647,2.348-10.351
	c0-3.704-0.844-7.215-2.348-10.351l5.907-5.907c2.822,4.77,4.449,10.327,4.449,16.259
	C288.031,429.841,286.404,435.399,283.582,440.167z"/>
<rect x="207.935" y="479.608" style="fill:#F6306D;" width="15.673" height="16.718"/>
</svg>